<?xml version="1.0" standalone="no"?><!DOCTYPE svg PUBLIC "-//W3C//DTD SVG 1.1//EN" "http://www.w3.org/Graphics/SVG/1.1/DTD/svg11.dtd"><svg t="1620180990737" class="icon" viewBox="0 0 1024 1024" version="1.1" xmlns="http://www.w3.org/2000/svg" p-id="2607" xmlns:xlink="http://www.w3.org/1999/xlink" width="200" height="200"><defs><style type="text/css"></style></defs><path d="M929.5 400.2c-4.1-15.3-22.4-26-51.7-32.1-9.8-2.1-20.9-3.6-33.1-4.6-57.1-127-184.3-215.6-332.6-215.6-201.6 0-365 163.4-365 365 0 10.9 1 21.5 2 32.2-16.3 10.5-29.9 20.8-40.6 30.6-20.7 19.1-30.3 36.8-26.4 51.6 14.9 55.7 216.7 50 450.7-12.7 234-62.8 411.6-158.8 396.7-214.4zM548.6 673.4c-129.8 34.8-249.7 51.8-333.4 50.4 66.2 92.9 174.1 154 296.9 154 191.5 0 347.7-147.7 362.9-335.3-70.8 45.4-188.6 94-326.4 130.9z" fill="#51CDCB" p-id="2608"></path></svg>